PathFileType	4	(X/Y/Z)	Patient4_TMGait_0pt6_02_left_35.trc.trc
DataRate	CameraRate	NumFrames	NumMarkers	Units	OrigDataRate	OrigDataStartFrame	OrigNumFrames
83.832335329341	83.832335329341	4	33	mm	83.832335329341	1	       141
Frame#	Time	Sacral			L.Shoulder			Chest			R.Shoulder			Neck			R.ASIS			L.ASIS			R.Thigh.Superior			R.Thigh.Lateral			R.Thigh.Inferior			R.Patella			L.Thigh.Superior			L.Thigh.Lateral			L.Thigh.Inferior			L.Patella			L.Shank.Superior			L.Shank.Lateral			L.Shank.Inferior			R.Shank.Superior			R.Shank.Lateral			R.Shank.Inferior			R.Heel			R.Midfoot.Superior			R.Midfoot.Lateral			R.Toe			L.Heel			L.Midfoot.Lateral			L.Midfoot.Superior			L.Toe			L.Elbow			L.Wrist			R.Elbow			R.Wrist			
		X1	Y1	Z1	X2	Y2	Z2	X3	Y3	Z3	X4	Y4	Z4	X5	Y5	Z5	X6	Y6	Z6	X7	Y7	Z7	X8	Y8	Z8	X9	Y9	Z9	X10	Y10	Z10	X11	Y11	Z11	X12	Y12	Z12	X13	Y13	Z13	X14	Y14	Z14	X15	Y15	Z15	X16	Y16	Z16	X17	Y17	Z17	X18	Y18	Z18	X19	Y19	Z19	X20	Y20	Z20	X21	Y21	Z21	X22	Y22	Z22	X23	Y23	Z23	X24	Y24	Z24	X25	Y25	Z25	X26	Y26	Z26	X27	Y27	Z27	X28	Y28	Z28	X29	Y29	Z29	X30	Y30	Z30	X31	Y31	Z31	X32	Y32	Z32	X33	Y33	Z33	

1	42.720000000000	822.416089890100	1015.896432507270	524.350648993815	996.579644012890	1432.122633282339	317.999085723410	1116.667683891312	1359.662234767807	464.870584570844	1060.931423683409	1443.007293785645	644.750817781826	1016.449050018218	1495.734464165758	466.530980268712	1059.253942897634	943.285397989425	615.931253279710	1014.919922307039	964.350604574502	345.575825863126	1090.335047280223	739.077346993618	583.336781747995	1007.581967034637	633.571921458777	645.453348455252	1075.133427227140	579.641605066018	558.379129185650	1071.236983242036	492.010119123056	561.453811614375	1103.785510537042	792.592217072581	369.620200157638	1062.793364509909	665.852131723971	290.833321026533	1173.181335730469	607.967213327576	344.755974280117	1191.108122444386	518.190867489060	334.677040683273	1126.997598806088	448.304856946492	331.312656809510	984.389138501273	398.598177477811	293.486499750683	983.800631235475	267.460185429784	345.415538098989	1042.165805413004	404.464698278354	569.401874836070	973.602625645552	301.278789506902	633.384029724178	1008.798209930333	207.030697587329	565.543251847410	870.653082454073	43.567045064189	538.866739579733	1043.363612925257	96.540603158810	567.858876469694	956.773126926043	37.310826974756	610.275017218593	1164.806876070596	41.611097084245	591.131725242632	801.210129155373	199.855198565117	398.535248918367	850.460344929358	152.916458168526	313.373949902787	957.434525840795	158.183011614120	324.855678989450	1029.325732691744	43.787871026439	290.141754429205	967.643507631260	1070.946644896809	226.203576215000	1040.832157175734	821.036458220568	212.490990624214	1115.351967393801	1109.172004811096	788.347195839245	1320.563510083289	966.526934538536	716.088244538518	
2	42.731928571429	821.776099096627	1016.496891352973	525.493224919368	996.050669002476	1432.061463337382	318.366798908541	1116.760151841608	1359.231952153808	464.521261982118	1062.555891510607	1443.093458880596	644.683019131000	1016.953018840165	1495.656668405877	466.779240840030	1058.267567071317	942.962496619697	616.074494892379	1013.255515656751	964.616500657909	345.793013102850	1087.041010941163	738.321518378096	582.918792492715	1003.743867191552	633.522774516868	645.846066268214	1070.228028906801	578.903057285110	558.555543506130	1065.475406917498	491.546483688459	561.791149115880	1103.082735846461	794.848651905406	369.924493327755	1063.794021774100	667.891608147018	290.735209944837	1174.632723811346	611.235581191665	345.012240308464	1194.122569745876	522.620446773864	334.518504665902	1133.243287221688	451.323017573304	330.443674718546	993.915990743823	394.646659546286	292.452567676522	1000.788241886944	263.640070179237	343.173753588202	1036.233669299291	404.291312113117	569.766340691654	967.189169113905	301.241623461109	633.658633297100	1001.876451120157	206.929456156688	565.719326094467	863.099206404512	43.649871045399	538.976961438870	1035.876788635277	96.591255637161	568.082203720082	949.168109618922	37.273655101750	610.318102635678	1157.201428744404	41.493974679520	591.224824354786	823.342078342512	185.108095988716	396.108529436837	874.583036471230	142.570457436942	310.245653775813	980.553115635738	154.178339392753	321.605131209095	1058.754558681460	45.466567737113	285.192139609458	958.424766163178	1071.674063675356	227.068828713528	1018.823027919373	819.760159614876	214.057891487683	1125.190713016738	1111.497443140568	787.073177520700	1336.742872835390	985.901200494611	710.025941210024	
3	42.743857142857	821.135015656432	1017.090344380952	526.584532386809	995.550118194918	1432.005709148610	318.720692686984	1116.864200447745	1358.789303386915	464.161138658559	1064.175679188561	1443.141066090978	644.603799823717	1017.474712370968	1495.567391549297	467.019968782085	1057.289366958876	942.629698989244	616.181300104200	1011.623429039295	964.855820158374	345.978340741233	1083.777599113796	737.561232073737	582.522648400692	999.921897672296	633.466833009779	646.224128491543	1065.363071195302	578.164526368671	558.730640155276	1059.763763799700	491.088751333292	562.118788389529	1102.309295429144	796.985063340419	370.237624951121	1064.677451312489	669.809881791636	290.663844300902	1175.892310320894	614.323672957168	345.328963412830	1196.928629292903	526.901305397366	334.442995315913	1139.294177649482	454.245482691642	329.659198505442	1003.415408267519	390.628220999451	291.331817893119	1017.681745857566	259.855731522249	340.938863148762	1030.342901209486	404.103914904349	570.107125607395	960.836968834449	301.204303274315	633.926199938507	995.024557334961	206.825294845068	565.887557009616	855.625118545154	43.731359837579	539.082648344734	1028.465767327384	96.636101664698	568.290950811394	941.648844580170	37.238686744341	610.361839379462	1149.678472436174	41.379929790510	591.313292908695	845.482264688788	170.482132306187	393.489509755849	898.744086184437	132.377929597977	307.012110459314	1003.608957386312	150.280503595247	318.392030666172	1088.061628494929	47.324578362321	280.427167975672	949.200791998432	1072.483226791896	227.845941659284	997.268871273756	818.665923690899	215.636369533285	1134.884468311375	1113.771984295328	785.742287737571	1352.459037326461	1005.124026390620	703.999568411077	
4	42.755785714286	820.495371616292	1017.664130207989	527.563826558070	995.107683129267	1431.960161740366	319.042688632811	1116.993012292893	1358.317904821343	463.773476750680	1065.787214542396	1443.108154242987	644.495166279376	1018.031844047872	1495.452414602930	467.241486852073	1056.329647662252	942.274914673137	616.211059353650	1010.059267790599	965.037088826462	346.088385856778	1080.560310117365	736.786500982787	582.159802540173	996.111102385080	633.395199695629	646.565602434028	1060.551738510961	577.420042138077	558.897395807803	1054.119068150489	490.634699311326	562.422538878103	1101.391295886928	798.857958507590	370.552372861599	1065.301893068644	671.472130980688	290.616347123567	1176.749256295408	617.027475883751	345.738469465308	1199.293220983022	530.875527361571	334.512362330675	1144.948533958665	456.980723659882	329.017745713975	1012.874362916413	386.477008168456	290.051265428646	1034.432449479686	256.171737339572	338.725484932535	1024.499127847089	403.890793236540	570.402813597985	954.558503485288	301.166593589634	634.176495028450	988.257589961026	206.713049461949	566.038824214506	848.247724031993	43.810442247757	539.179785946631	1021.144296491028	96.670332590874	568.473679491719	934.236184456217	37.207339583598	610.406231335044	1142.256969926216	41.271755636922	591.393116137649	867.744456888442	156.116604593538	390.543546205483	923.075404389625	122.510722720051	303.620587271077	1026.606065348997	146.639245418161	315.270514181096	1117.188487378961	49.618771484332	276.052605966543	939.929390442030	1073.481714130194	228.476609825565	976.482352530612	817.956748609104	217.249488284284	1144.333307970682	1115.959121169033	784.267589419290	1367.271570675088	1024.130810736507	698.006058779641	
